<?xml version="1.0" encoding="UTF-8" standalone="no"?><!DOCTYPE svg PUBLIC "-//W3C//DTD SVG 1.1//EN" "http://www.w3.org/Graphics/SVG/1.1/DTD/svg11.dtd"><svg width="100%" height="100%" viewBox="0 0 1024 1024" version="1.1" xmlns="http://www.w3.org/2000/svg" xmlns:xlink="http://www.w3.org/1999/xlink" xml:space="preserve" style="fill-rule:evenodd;clip-rule:evenodd;stroke-linejoin:round;stroke-miterlimit:1.41421;"><path d="M480,351.265l-35.399,45.538l0,-238.803l35.399,0l0,193.265Z"/><path d="M576,392.43l-32,-41.165l0,-191.265l32,0l0,232.43Z"/><path d="M478.519,353.17l-91.11,117.204l-34.39,0.738c-8.606,-10.404 -18.161,-21.955 -24.722,-29.888l3.27,-15.336l146.952,-72.718Z"/><path d="M544.914,352.44l150.601,72.584l3.43,15.302c-6.479,8 -15.912,19.65 -24.41,30.143l-38.198,-0.422l-91.423,-117.607Z"/><path d="M480,188.552c0,0 -61.839,83.08 -104.881,140.907l-80.56,-0.464c-14.155,-19.483 -28.71,-39.516 -37.403,-51.482l4.89,-15.352c48.584,-16.408 217.954,-73.609 217.954,-73.609Z"/><path d="M544,188.552c0,0 169.37,57.201 217.954,73.609l4.89,15.352c-8.693,11.966 -23.248,31.999 -37.403,51.482l-80.56,0.464c-43.042,-57.827 -104.881,-140.907 -104.881,-140.907Z"/><path d="M448,532.431c8.251,11.366 19.263,20.466 32,26.231l0,281.838l-32,0l0,-308.069Z"/><path d="M576,532.431l0,308.069l-32,0l0,-281.838c12.738,-5.765 23.749,-14.865 32,-26.231Z"/><path d="M625.823,667.819l-81.823,-36.315l0,-74.306l81.823,110.621Zm-145.823,-106.604l0,71.607l-78.851,34.997l78.851,-106.604Z"/><path d="M631.315,563.669l-70.628,-15.218c11.545,-9.182 20.605,-21.548 25.947,-35.825l44.681,51.043Zm-193.949,-51.043c5.342,14.277 14.402,26.643 25.947,35.825l-70.628,15.218l44.681,-51.043Z"/><path d="M544,225.806l0,-68.188l73.266,-29.618l-73.266,97.806Zm-64,-68.188l0,68.188l-73.266,-97.806l73.266,29.618Z"/></svg>