<?xml version="1.0" encoding="UTF-8" standalone="no"?>
<!DOCTYPE svg PUBLIC "-//W3C//DTD SVG 1.1//EN" "http://www.w3.org/Graphics/SVG/1.1/DTD/svg11.dtd">
<svg width="100%" height="100%" viewBox="0 0 1024 1024" version="1.1" xmlns="http://www.w3.org/2000/svg" xmlns:xlink="http://www.w3.org/1999/xlink" xml:space="preserve" style="fill-rule:evenodd;clip-rule:evenodd;stroke-linejoin:round;stroke-miterlimit:1.41421;">
    <path d="M480,351.265L444.601,396.803L444.601,158L480,158L480,351.265Z" style="fill:white;"/>
    <path d="M576,392.43L544,351.265L544,160L576,160L576,392.43Z" style="fill:white;"/>
    <path d="M478.519,353.17L387.409,470.374L353.019,471.112C344.413,460.708 334.858,449.157 328.297,441.224L331.567,425.888L478.519,353.17Z" style="fill:white;"/>
    <path d="M544.914,352.44L695.515,425.024L698.945,440.326C692.466,448.326 683.033,459.976 674.535,470.469L636.337,470.047L544.914,352.44Z" style="fill:white;"/>
    <g transform="matrix(1.02843,1.41552,-1.06907,0.776728,636.288,-590.033)">
        <path d="M307.5,442C307.5,442 325.141,516.813 337.419,568.886L310.141,618C296.377,618 282.225,618 273.772,618L268.316,608.177C277.051,571.135 307.5,442 307.5,442Z" style="fill:white;"/>
    </g>
    <g transform="matrix(1.02843,-1.41552,1.06907,0.776728,-244.774,280.509)">
        <path d="M307.5,442C307.5,442 337.949,571.135 346.684,608.177L341.228,618C332.775,618 318.623,618 304.859,618L277.581,568.886C289.859,516.813 307.5,442 307.5,442Z" style="fill:white;"/>
    </g>
    <path d="M448,532.431C456.251,543.797 467.263,552.897 480,558.662L480,840.5L448,840.5L448,532.431Z" style="fill:white;"/>
    <path d="M576,532.431L576,840.5L544,840.5L544,558.662C556.738,552.897 567.749,543.797 576,532.431Z" style="fill:white;"/>
    <path d="M625.823,667.819L544,631.504L544,557.198L625.823,667.819ZM480,561.215L480,632.822L401.149,667.819L480,561.215Z" style="fill:white;"/>
    <path d="M631.315,563.669L560.687,548.451C572.232,539.269 581.292,526.903 586.634,512.626L631.315,563.669ZM437.366,512.626C442.708,526.903 451.768,539.269 463.313,548.451L392.685,563.669L437.366,512.626Z" style="fill:white;"/>
    <path d="M544,225.806L544,157.618L617.266,128L544,225.806ZM480,157.618L480,225.806L406.734,128L480,157.618Z" style="fill:white;"/>
</svg>
